<svg xmlns="http://www.w3.org/2000/svg" width="24" height="26" viewBox="0 0 24 26" fill="none">
  <path d="M10.2595 4.95165C10.2835 4.95165 10.3035 4.92997 10.3035 4.9083C10.3035 4.86063 2.5755 4.85195 2.4675 4.89531C2.4355 4.9083 2.52349 4.95597 2.66749 4.99497C3.3435 5.18997 3.9795 5.67962 4.44349 6.35997C4.7275 6.78031 4.85149 7.03597 5.16349 7.8333C5.21132 7.95654 5.26166 8.08564 5.30992 8.20923C5.41097 8.46809 5.50289 8.7027 5.5435 8.8083C5.60749 8.96428 6.2275 10.572 6.9235 12.3833C7.45488 13.7583 7.954 15.0559 8.20386 15.7055C8.28315 15.9117 8.33734 16.0525 8.3595 16.11C8.45149 16.3483 9.18349 18.2463 9.9835 20.322C10.8155 22.4843 11.4595 24.105 11.4875 24.105C11.5155 24.105 11.5995 23.9013 11.6795 23.637C12.5075 20.8983 12.5155 17.215 11.6995 13.835C11.4715 12.899 11.0555 11.6466 10.4155 9.97829C10.0635 9.05962 9.7515 8.24928 9.7195 8.17997C9.70583 8.14401 9.66071 8.02858 9.59857 7.86992C9.5334 7.70352 9.4495 7.4896 9.36349 7.26997C9.1035 6.58962 9.06349 6.45531 9.06349 6.22997C9.06349 5.91364 9.2115 5.60165 9.45949 5.38928C9.6115 5.25497 10.1715 4.95165 10.2595 4.95165Z" fill="white"/>
  <path d="M21.3698 4.99472C21.4858 4.96006 21.5698 4.92106 21.5578 4.89937C21.5298 4.85606 16.3418 4.8517 16.3418 4.89937C16.3418 4.9167 16.4098 4.96006 16.4938 4.99037C16.7258 5.07705 17.0378 5.31537 17.1978 5.52773C17.3818 5.77472 17.5658 6.21239 17.6458 6.61106C17.7218 6.97072 17.7338 8.17972 17.6698 8.50472C17.6458 8.61304 17.6178 8.83403 17.6018 9.00305L17.5738 9.3064L17.8818 8.69972C18.4578 7.57304 18.9498 6.84506 19.6058 6.16903C20.1818 5.57106 20.8218 5.1464 21.3698 4.99472Z" fill="white"/>
</svg>